<?xml version="1.0" standalone="no"?><!DOCTYPE svg PUBLIC "-//W3C//DTD SVG 1.1//EN" "http://www.w3.org/Graphics/SVG/1.1/DTD/svg11.dtd"><svg t="1731382660397" class="icon" viewBox="0 0 1024 1024" version="1.1" xmlns="http://www.w3.org/2000/svg" p-id="7069" xmlns:xlink="http://www.w3.org/1999/xlink" width="200" height="200"><path d="M810.688 960H213.312A149.376 149.376 0 0 1 64 810.688V312.896a149.376 149.376 0 0 1 149.312-149.312h597.312A149.376 149.376 0 0 1 960 312.896v497.792A149.376 149.376 0 0 1 810.688 960z m99.584-647.104c0-54.976-44.608-99.52-99.584-99.52H213.312c-54.976 0-99.584 44.544-99.584 99.52v497.792c0 54.912 44.544 99.584 99.584 99.584h597.312c54.912 0 99.584-44.608 99.584-99.584V312.896z m-127.616 281.536l28.032 16.128v100.544h-149.376V462.208h149.376v116.032l-28.032 16.192zM760.896 512h-49.728v49.792h49.728V512z m0 99.584h-49.728v49.728h49.728v-49.728z m-199.104 0H462.208v99.584h-49.792v-248.96h199.104v248.896h-49.728V611.584z m0-99.584H462.208v49.792h99.584V512z m-248.896 199.104h-49.792V512h-49.792v-49.792h149.312V512h-49.728v199.104zM113.792 64h497.792v49.792H113.792V64z" p-id="7070"></path></svg>
