<svg width="16" height="16" viewBox="0 0 16 16" fill="" xmlns="http://www.w3.org/2000/svg">
<path fill-rule="evenodd" clip-rule="evenodd" d="M8.28323 0.387407C8.1002 0.333942 7.90571 0.333917 7.72267 0.387335L2.05318 2.04192C1.62659 2.16642 1.33334 2.55749 1.33334 3.00188V6.34294C1.33334 10.3671 3.88347 13.944 7.67686 15.2608C7.88658 15.3336 8.11521 15.3336 8.32494 15.2608C12.1173 13.9439 14.6667 10.3678 14.6667 6.34461V3.00181C14.6667 2.55752 14.3735 2.16651 13.9471 2.04193L8.28323 0.387407ZM2.66667 3.25184L8.00278 1.69454L13.3333 3.2517V6.34461C13.3333 9.75924 11.1948 12.7989 8.00084 13.961C4.80597 12.7989 2.66667 9.75848 2.66667 6.34294V3.25184Z" fill=""/>
<path fill-rule="evenodd" clip-rule="evenodd" d="M8 8C6.89533 8 6 7.10333 6 6C6 4.89667 6.89533 4 8 4C9.10467 4 10 4.89667 10 6C10 7.10333 9.10467 8 8 8ZM8 6.66667C8.36833 6.66667 8.66667 6.36667 8.66667 6C8.66667 5.63333 8.36833 5.33333 8 5.33333C7.63167 5.33333 7.33333 5.63333 7.33333 6C7.33333 6.36667 7.63167 6.66667 8 6.66667Z" fill=""/>
<path d="M8.66667 11.6735C8.66667 11.8538 8.51743 12 8.33334 12H7.66667C7.48257 12 7.33334 11.8538 7.33334 11.6735L7.33334 6.9932C7.33334 6.81286 7.48257 6.66667 7.66667 6.66667H8.33334C8.51743 6.66667 8.66667 6.81286 8.66667 6.9932V11.6735Z" fill=""/>
<path d="M8.28571 9.99996C8.12792 9.99996 8 9.85072 8 9.66663V8.99996C8 8.81586 8.12792 8.66663 8.28571 8.66663H9.71429C9.87208 8.66663 10 8.81586 10 8.99996V9.66663C10 9.85072 9.87208 9.99996 9.71429 9.99996H8.28571Z" fill=""/>
</svg>
