<svg width="14" height="14" viewBox="0 0 14 14" fill="" xmlns="http://www.w3.org/2000/svg">
<path d="M0.666577 4.60903C0.666577 4.69744 0.701696 4.78222 0.764208 4.84474C0.82672 4.90725 0.911505 4.94237 0.999911 4.94237H13.1666C13.7692 4.94237 14.0626 4.20637 13.6249 3.7917L10.2166 0.5627C10.1848 0.532575 10.1474 0.509006 10.1065 0.493338C10.0656 0.47767 10.0221 0.470212 9.97829 0.471388C9.93452 0.472564 9.89141 0.482352 9.85142 0.500193C9.81143 0.518034 9.77536 0.543579 9.74524 0.575367L9.28391 1.06237C9.2236 1.12601 9.1908 1.21086 9.19261 1.29852C9.19442 1.38618 9.23069 1.4696 9.29358 1.5307L11.4936 3.66837H0.999911C0.956137 3.66837 0.912791 3.67699 0.872349 3.69374C0.831908 3.71049 0.795161 3.73504 0.764208 3.766C0.733255 3.79695 0.708702 3.8337 0.691951 3.87414C0.675199 3.91458 0.666577 3.95793 0.666577 4.0017V4.60903ZM0.833244 9.00003C0.230577 9.00003 -0.0627561 9.73603 0.374911 10.1507L3.78324 13.38C3.81504 13.4101 3.85246 13.4337 3.89336 13.4493C3.93425 13.465 3.97783 13.4724 4.0216 13.4712C4.06537 13.47 4.10848 13.4602 4.14845 13.4423C4.18843 13.4244 4.22449 13.3988 4.25458 13.367L4.71324 12.8834C4.74335 12.8516 4.76689 12.8142 4.78253 12.7733C4.79817 12.7324 4.8056 12.6888 4.80439 12.645C4.80318 12.6012 4.79337 12.5581 4.7755 12.5182C4.75763 12.4782 4.73205 12.4421 4.70024 12.412L2.50658 10.3334H12.9999C13.0883 10.3334 13.1731 10.2982 13.2356 10.2357C13.2981 10.1732 13.3332 10.0884 13.3332 10V9.33337C13.3332 9.24496 13.2981 9.16018 13.2356 9.09766C13.1731 9.03515 13.0883 9.00003 12.9999 9.00003H0.833244Z" fill=""/>
</svg>
