<svg width="40" height="40" viewBox="0 0 40 40" xmlns="http://www.w3.org/2000/svg">
<path fill-rule="evenodd" clip-rule="evenodd" d="M36.6667 5C37.5871 5 38.3333 5.83947 38.3333 6.875V33.125C38.3333 34.1605 37.5871 35 36.6667 35H3.33333C2.41286 35 1.66667 34.1605 1.66667 33.125V6.875C1.66667 5.83947 2.41286 5 3.33333 5H36.6667ZM14.3426 25.5486C14.7543 26.3719 15.7554 26.7057 16.5787 26.294L26.1853 21.4907C26.5078 21.3295 26.7693 21.0679 26.9306 20.7454C27.3423 19.9221 27.0086 18.9209 26.1853 18.5093L16.5787 13.706C16.3473 13.5903 16.0921 13.5301 15.8333 13.5301C14.9129 13.5301 14.1667 14.2763 14.1667 15.1967V24.8033C14.1667 25.062 14.2269 25.3172 14.3426 25.5486ZM10 9.16667H6.66667V14.1667H10V9.16667ZM10 17.5H6.66667V22.5H10V17.5ZM10 25.8333H6.66667V30.8333H10V25.8333ZM33.3333 9.16667H30V14.1667H33.3333V9.16667ZM30 17.5H33.3333V22.5H30V17.5ZM30 25.8333H33.3333V30.8333H30V25.8333Z" />
</svg>
