<svg width="20" height="20" viewBox="0 0 20 20" fill="" xmlns="http://www.w3.org/2000/svg">
<path fill-rule="evenodd" clip-rule="evenodd" d="M0.833344 3.75C0.833344 2.82952 1.57954 2.08333 2.50001 2.08333H7.91668C8.16399 2.08333 8.39853 2.19319 8.55686 2.38318L10.3903 4.58333H15.625C16.5455 4.58333 17.2917 5.32951 17.2917 6.25V8.75C17.2917 9.21024 16.9186 9.58333 16.4583 9.58333H4.40066L2.47513 17.2854C2.37305 17.6937 1.98257 17.9618 1.56486 17.9104C1.14715 17.859 0.833344 17.5042 0.833344 17.0833V3.75ZM7.52636 3.75H2.50001V10.3141L2.94156 8.54789C3.0343 8.17691 3.36762 7.91667 3.75001 7.91667H15.625V6.25H10C9.75269 6.25 9.51815 6.14015 9.35983 5.95015L7.52636 3.75Z" fill=""/>
<path fill-rule="evenodd" clip-rule="evenodd" d="M2.86165 8.55504C2.95176 8.18059 3.28672 7.91667 3.67186 7.91667H18.3333C18.583 7.91667 18.8195 8.0286 18.9778 8.22168C19.1361 8.41475 19.1994 8.66862 19.1505 8.91343L17.4838 17.2468C17.4059 17.6363 17.0639 17.9167 16.6667 17.9167H1.66665C1.41133 17.9167 1.1701 17.7996 1.01209 17.5991C0.854075 17.3985 0.796715 17.1366 0.856446 16.8884L2.86165 8.55504ZM4.32846 9.58333L2.72429 16.25H15.9835L17.3168 9.58333H4.32846Z" fill=""/>
</svg>
