<svg width="12" height="12" viewBox="0 0 12 12" fill="none" xmlns="http://www.w3.org/2000/svg">
<g clip-path="url(#clip0_4327_361639)">
<path d="M6 11.5C9.03757 11.5 11.5 9.03757 11.5 6C11.5 2.96243 9.03757 0.5 6 0.5C2.96243 0.5 0.5 2.96243 0.5 6C0.5 9.03757 2.96243 11.5 6 11.5Z" fill="#F54A45"/>
<path d="M5.75 3.5C5.61193 3.5 5.5 3.61193 5.5 3.75V6.75C5.5 6.88807 5.61193 7 5.75 7H6.25C6.38807 7 6.5 6.88807 6.5 6.75V3.75C6.5 3.61193 6.38807 3.5 6.25 3.5H5.75Z" fill="white"/>
<path d="M5.75 7.5C5.61193 7.5 5.5 7.61193 5.5 7.75V8.25C5.5 8.38807 5.61193 8.5 5.75 8.5H6.25C6.38807 8.5 6.5 8.38807 6.5 8.25V7.75C6.5 7.61193 6.38807 7.5 6.25 7.5H5.75Z" fill="white"/>
</g>
<defs>
<clipPath id="clip0_4327_361639">
<rect width="12" height="12" fill="white"/>
</clipPath>
</defs>
</svg>
