<svg width="40" height="40" viewBox="0 0 40 40"  xmlns="http://www.w3.org/2000/svg">
<path d="M20 1.6666C30.125 1.6666 38.3333 9.87493 38.3333 19.9999C38.3333 30.1249 30.125 38.3333 20 38.3333C9.87499 38.3333 1.66666 30.1249 1.66666 19.9999C1.66666 9.87493 9.87499 1.6666 20 1.6666ZM16.4483 11.6666C16.065 11.6672 15.6969 11.8173 15.4225 12.0849C15.1508 12.3516 14.9983 12.7124 15 13.0883V26.9133C15 27.1791 15.0767 27.4391 15.22 27.6658C15.4253 27.987 15.7495 28.2138 16.1217 28.2966C16.4967 28.3816 16.89 28.3174 17.2158 28.1174L28.4867 21.2058C28.91 20.9441 29.1667 20.4891 29.1667 19.9999C29.1667 19.5108 28.91 19.0566 28.4867 18.7941L17.2167 11.8833C16.9854 11.7418 16.7195 11.6662 16.4483 11.6666Z" />
</svg>
