<svg width="16" height="16" viewBox="0 0 16 16"  xmlns="http://www.w3.org/2000/svg">
<path fill-rule="evenodd" clip-rule="evenodd" d="M1.33325 3.66665C1.33325 2.37798 2.37792 1.33331 3.66659 1.33331C4.72358 1.33331 5.61644 2.03615 5.90329 2.99998H14.3333C14.5173 2.99998 14.6666 3.14922 14.6666 3.33331V3.99998C14.6666 4.18407 14.5173 4.33331 14.3333 4.33331H5.90329C5.61644 5.29714 4.72358 5.99998 3.66659 5.99998C2.37792 5.99998 1.33325 4.9553 1.33325 3.66665ZM1.66659 8.66665C1.48249 8.66665 1.33325 8.51741 1.33325 8.33331V7.66665C1.33325 7.48255 1.48249 7.33331 1.66659 7.33331H5.76321C6.05007 6.36949 6.94292 5.66665 7.99992 5.66665C9.05692 5.66665 9.94977 6.36949 10.2366 7.33331H14.3333C14.5173 7.33331 14.6666 7.48255 14.6666 7.66665V8.33331C14.6666 8.51741 14.5173 8.66665 14.3333 8.66665H10.2366C9.94977 9.63047 9.05692 10.3333 7.99992 10.3333C6.94292 10.3333 6.05007 9.63047 5.76321 8.66665H1.66659ZM7.99992 8.99998C8.5522 8.99998 8.99992 8.55226 8.99992 7.99998C8.99992 7.4477 8.5522 6.99998 7.99992 6.99998C7.44764 6.99998 6.99992 7.4477 6.99992 7.99998C6.99992 8.55226 7.44764 8.99998 7.99992 8.99998ZM1.66659 13C1.48249 13 1.33325 12.8507 1.33325 12.6666V12C1.33325 11.8159 1.48249 11.6666 1.66659 11.6666H10.0965C10.3834 10.7028 11.2763 9.99998 12.3333 9.99998C13.6219 9.99998 14.6666 11.0447 14.6666 12.3333C14.6666 13.622 13.6219 14.6666 12.3333 14.6666C11.2763 14.6666 10.3834 13.9638 10.0965 13H1.66659ZM12.3333 11.3333C11.781 11.3333 11.3333 11.781 11.3333 12.3333C11.3333 12.8856 11.781 13.3333 12.3333 13.3333C12.8855 13.3333 13.3333 12.8856 13.3333 12.3333C13.3333 11.781 12.8855 11.3333 12.3333 11.3333ZM3.66659 4.66665C4.21886 4.66665 4.66659 4.21892 4.66659 3.66665C4.66659 3.11436 4.21886 2.66665 3.66659 2.66665C3.1143 2.66665 2.66659 3.11436 2.66659 3.66665C2.66659 4.21892 3.1143 4.66665 3.66659 4.66665Z" />
</svg>
