<svg t="1733888045901" class="icon" viewBox="0 0 1024 1024" version="1.1" xmlns="http://www.w3.org/2000/svg" p-id="4579" width="200" height="200"><path d="M474.87 408.26v26.88l25.31-18.67V566.8h25.31V389.59h-25.31l-25.31 18.67zM294.69 606.57a36.74 36.74 0 0 0 2.48-8 65.81 65.81 0 0 0 1-8.34c0.16-2.9 0.25-6.51 0.25-10.82a65.87 65.87 0 0 0-2.11-16.92 42.84 42.84 0 0 0-6.57-14.18 33.85 33.85 0 0 0-11.78-9.83 37.07 37.07 0 0 0-17-3.61 36 36 0 0 0-14.9 3.13 37.24 37.24 0 0 0-11.91 8.33 38.62 38.62 0 0 0-8.18 12.2 37.54 37.54 0 0 0-3 14.93v13.94h25.33V573q0-6.22 3.35-9.45t9.06-3.24c3.14 0 5.54 0.63 7.19 1.86a11.85 11.85 0 0 1 3.72 4.61 16.8 16.8 0 0 1 1.36 6.34q0.13 3.61 0.13 6.84 0 7.22-0.49 12.07a31.78 31.78 0 0 1-4 11.33L223 689.7v23.89h75.43V688.2h-45.66L290 616.27q3-5.71 4.72-9.7M797.63 687.7a31.28 31.28 0 0 0 1.86-9.45q0.37-5.73 0.37-14.94 0-16.18-2.23-24.39a29 29 0 0 0-3.1-7.22 54.2 54.2 0 0 0-4.34-6 39.82 39.82 0 0 0-10.3-8.34q-6.82-4.1-17.24-4.1a37.31 37.31 0 0 0-14.88 3 40.71 40.71 0 0 0-12.16 8 35.68 35.68 0 0 0-8.19 11.94 36.94 36.94 0 0 0-3 14.68v14.69h25.3v-14.45a14.73 14.73 0 0 1 2.86-8.22q2.86-4.23 9.55-4.23a12 12 0 0 1 9.06 3.49 12.39 12.39 0 0 1 3.35 9V674q0 10-4.34 12.69t-15.75 2.74v22.4a81.93 81.93 0 0 1 10 0.49 11 11 0 0 1 6.08 2.49q4 3.23 4 13.69v25.4q0 6.48-3.35 10.33a12.57 12.57 0 0 1-18.11 0 14.45 14.45 0 0 1-3.35-9.83v-13.19h-25.3v14.44q0 10.45 3.6 17.67a35.08 35.08 0 0 0 9.06 11.7 34.38 34.38 0 0 0 12.16 6.47 44.32 44.32 0 0 0 12.66 2q11.91 0 19.23-4.61a40 40 0 0 0 12-11.57 40.83 40.83 0 0 0 3.23-5.72 29.61 29.61 0 0 0 2-6.72 73.78 73.78 0 0 0 1.11-9.46q0.37-5.72 0.37-14.43 0-9.46-0.25-15.56a38.6 38.6 0 0 0-1.74-10.57 20.42 20.42 0 0 0-4.59-7.46 48.4 48.4 0 0 0-9.06-7 57.48 57.48 0 0 0 8.56-6 18.85 18.85 0 0 0 4.84-6.72" fill="#231F20" p-id="4580"></path><path d="M825.86 444.52h-129a83.55 83.55 0 0 0-36 8.1v-304C660.87 102 623 64 576.51 64h-129c-46.51 0-84.36 38-84.36 84.63v143.61a83.53 83.53 0 0 0-36-8.1h-129c-46.52 0-84.36 38-84.36 84.62v506.62c0 46.66 37.84 84.62 84.36 84.62h129a84 84 0 0 0 60.17-25.38A84 84 0 0 0 447.49 960h129a84 84 0 0 0 60.17-25.38A84 84 0 0 0 696.84 960h129c46.52 0 84.36-38 84.36-84.62V529.14c0.02-46.66-37.82-84.62-84.34-84.62z m-464 430.86a34.83 34.83 0 0 1-34.74 34.85h-129a34.83 34.83 0 0 1-34.74-34.85V368.76a34.83 34.83 0 0 1 34.74-34.84h129a34.83 34.83 0 0 1 34.74 34.84z m249.36 0a34.83 34.83 0 0 1-34.74 34.85h-129a34.83 34.83 0 0 1-34.74-34.85V148.63a34.84 34.84 0 0 1 34.74-34.85h129a34.84 34.84 0 0 1 34.74 34.85z m249.35 0a34.83 34.83 0 0 1-34.74 34.85h-129a34.83 34.83 0 0 1-34.74-34.85V529.14a34.83 34.83 0 0 1 34.74-34.84h129a34.83 34.83 0 0 1 34.74 34.84z" p-id="4581"></path></svg>