<?xml version="1.0" standalone="no"?><!DOCTYPE svg PUBLIC "-//W3C//DTD SVG 1.1//EN" "http://www.w3.org/Graphics/SVG/1.1/DTD/svg11.dtd"><svg t="1731570019470" class="icon" viewBox="0 0 1024 1024" version="1.1" xmlns="http://www.w3.org/2000/svg" p-id="1016" xmlns:xlink="http://www.w3.org/1999/xlink" width="200" height="200"><path d="M641.01 223.5h-362c-17.67 0-32 14.33-32 32s14.33 32 32 32h362c17.67 0 32-14.33 32-32s-14.33-32-32-32zM542.77 400.75H279.01c-17.67 0-32 14.33-32 32s14.33 32 32 32h263.76c17.67 0 32-14.33 32-32s-14.33-32-32-32zM369.76 578h-90.75c-17.67 0-32 14.33-32 32s14.33 32 32 32h90.75c17.67 0 32-14.33 32-32s-14.33-32-32-32z" p-id="1017"></path><path d="M411.42 960h-198.4c-61.76 0-112-50.24-112-112V176c0-61.76 50.24-112 112-112H707c61.76 0 112 50.24 112 112v242.21c0 17.67-14.33 32-32 32s-32-14.33-32-32V176c0-26.47-21.53-48-48-48H213.02c-26.47 0-48 21.53-48 48v672c0 26.47 21.53 48 48 48h198.4c17.67 0 32 14.33 32 32s-14.33 32-32 32z" p-id="1018"></path><path d="M839.74 528.92c3.02 0 7.44 0.81 11.31 4.69l38.18 38.18c3.87 3.87 4.69 8.29 4.69 11.31 0 3.02-0.81 7.44-4.69 11.31l-290.5 290.51-67.17 6.36 6.36-67.17L828.43 533.6c3.87-3.87 8.29-4.68 11.31-4.68m0-64c-20.47 0-40.95 7.81-56.57 23.43L481.16 790.37c-4.11 4.11-6.23 9.8-5.81 15.59l-12.87 135.91c0.72 9.9 8.59 17.78 18.5 18.5l135.91-12.87c0.49 0.04 0.97 0.05 1.45 0.05 5.28 0 10.38-2.09 14.14-5.86l302.01-302.02c31.24-31.24 31.24-81.89 0-113.14l-38.18-38.18c-15.62-15.62-36.1-23.43-56.57-23.43z" p-id="1019"></path><path d="M764.08 535.73l-45.26 45.25L846.1 708.26l45.26-45.25-127.28-127.28z" p-id="1020"></path></svg>