<svg width="40" height="40" viewBox="0 0 40 40" fill="none" xmlns="http://www.w3.org/2000/svg">
<path d="M3.33251 3.33334C2.41205 3.33334 1.66585 4.07954 1.66585 5.00001V28.3333C1.66585 29.2538 2.41205 30 3.33251 30H29.9992C30.9197 30 31.6658 29.2538 31.6658 28.3333V5.00001C31.6658 4.07954 30.9197 3.33334 29.9992 3.33334H3.33251ZM28.3325 6.66654V21.6668L24.7552 18.0893C24.4297 17.764 23.902 17.764 23.5765 18.0893L18.9218 22.7442C18.5963 23.0697 18.0687 23.0697 17.7432 22.7442L10.5884 15.5893C10.263 15.264 9.73536 15.264 9.40993 15.5893L4.99918 20.0002V6.66654H28.3325ZM21.6658 9.16668C21.2057 9.16668 20.8325 9.53978 20.8325 10V12.5C20.8325 12.9602 21.2057 13.3333 21.6658 13.3333H24.1658C24.626 13.3333 24.9992 12.9602 24.9992 12.5V10C24.9992 9.53978 24.626 9.16668 24.1658 9.16668H21.6658Z" fill="#3370FF"/>
<path d="M38.3333 35C38.3333 35.4603 38.1468 35.8769 37.8452 36.1785C37.5436 36.4801 37.1269 36.6667 36.6667 36.6667H19.1667C18.7064 36.6667 18.3333 36.2936 18.3333 35.8333V34.1667C18.3333 33.7064 18.7064 33.3333 19.1667 33.3333H35V14.1667C35 13.7064 35.3731 13.3333 35.8333 13.3333H37.5C37.9602 13.3333 38.3333 13.7064 38.3333 14.1667V35Z" fill="#3370FF"/>
</svg>
