<?xml version="1.0" standalone="no"?><!DOCTYPE svg PUBLIC "-//W3C//DTD SVG 1.1//EN" "http://www.w3.org/Graphics/SVG/1.1/DTD/svg11.dtd"><svg t="1731562646817" class="icon" viewBox="0 0 1024 1024" version="1.1" xmlns="http://www.w3.org/2000/svg" p-id="5554" xmlns:xlink="http://www.w3.org/1999/xlink" width="200" height="200"><path d="M256 640h512c46.933333 0 85.333333-38.4 85.333333-85.333333v-42.666667c0-46.933333-38.4-85.333333-85.333333-85.333333h-157.866667v-12.8c-4.266667-42.666667-42.666667-72.533333-85.333333-72.533334H256c-46.933333 0-85.333333 38.4-85.333333 85.333334v128c0 46.933333 38.4 85.333333 85.333333 85.333333z m512-128v42.666667h-140.8l-4.266667-42.666667H768zM256 426.666667h268.8-12.8l25.6 128H256v-128z" p-id="5555"></path><path d="M896 170.666667H128c-46.933333 0-85.333333 38.4-85.333333 85.333333v512c0 46.933333 38.4 85.333333 85.333333 85.333333h768c46.933333 0 85.333333-38.4 85.333333-85.333333V256c0-46.933333-38.4-85.333333-85.333333-85.333333z m0 597.333333H128V256h768v512z" p-id="5556"></path></svg>