<svg width="200" height="32" viewBox="0 0 200 32" fill="none" xmlns="http://www.w3.org/2000/svg">
<rect x="0.5" y="0.5" width="199" height="31" rx="3.5" fill="white"/>
<rect x="0.5" y="0.5" width="199" height="31" rx="3.5" stroke="#DEE0E3"/>
<path d="M12 10C12 8.34315 13.5985 7 15.5702 7H26.4298C28.4015 7 30 8.34315 30 10V22C30 23.6569 28.4015 25 26.4298 25H15.5702C13.5985 25 12 23.6569 12 22V10Z" fill="#00D6B9"/>
<path fill-rule="evenodd" clip-rule="evenodd" d="M17 12V18H25V12H17ZM16 11.5C16 11.2237 16.225 11 16.5 11H25.5C25.775 11 26 11.2237 26 11.5V18.5C26 18.7763 25.775 19 25.5 19H16.5C16.225 19 16 18.7763 16 18.5V11.5Z" fill="white"/>
<path d="M22.7192 13.3965L23.4262 14.1035L21.0587 16.471L19.9042 15.3167L19.1035 16.1177L18.3965 15.4105L19.9042 13.9027L21.0585 15.057L22.7192 13.3965Z" fill="white"/>
<path d="M23.5 20H18.5V21H23.5V20Z" fill="white"/>
</svg>
