<svg width="200" height="32" viewBox="0 0 200 32" fill="none" xmlns="http://www.w3.org/2000/svg">
<rect x="0.5" y="0.5" width="199" height="31" rx="3.5" fill="white"/>
<rect x="0.5" y="0.5" width="199" height="31" rx="3.5" stroke="#DEE0E3"/>
<g clip-path="url(#clip0_20303_369744)">
<path d="M12 10C12 8.34315 13.5985 7 15.5702 7H26.4298C28.4015 7 30 8.34315 30 10V22C30 23.6569 28.4015 25 26.4298 25H15.5702C13.5985 25 12 23.6569 12 22V10Z" fill="#14C0FF"/>
<path d="M15.5 13.822C15.5 13.626 15.6146 13.448 15.7931 13.3669L20.7931 11.0941C20.9246 11.0344 21.0754 11.0344 21.2069 11.0941L26.2069 13.3669C26.3854 13.448 26.5 13.626 26.5 13.822V18.6911C26.5 18.8805 26.393 19.0536 26.2236 19.1383L21.2236 21.6383C21.0828 21.7087 20.9172 21.7087 20.7764 21.6383L15.7764 19.1383C15.607 19.0536 15.5 18.8805 15.5 18.6911V13.822ZM24.6089 13.739L21 12.0985L17.3716 13.7478L20.98 15.3022L24.6089 13.739ZM21.5 16.167V20.3821L25.5 18.3821V14.4439L21.5 16.167ZM16.5 14.4612V18.3821L20.5 20.3821V16.1843L16.5 14.4612Z" fill="white"/>
</g>
<defs>
<clipPath id="clip0_20303_369744">
<rect width="18" height="18" fill="white" transform="translate(12 7)"/>
</clipPath>
</defs>
</svg>
