<svg width="200" height="32" viewBox="0 0 200 32" fill="none" xmlns="http://www.w3.org/2000/svg">
<rect x="0.5" y="0.5" width="199" height="31" rx="3.5" fill="white"/>
<rect x="0.5" y="0.5" width="199" height="31" rx="3.5" stroke="#DEE0E3"/>
<g clip-path="url(#clip0_20267_340220)">
<path d="M12 10C12 8.34315 13.4653 7 15.2727 7H26.7273C28.5347 7 30 8.34315 30 10V22C30 23.6569 28.5347 25 26.7273 25H15.2727C13.4653 25 12 23.6569 12 22V10Z" fill="#7F3BF5"/>
<g clip-path="url(#clip1_20267_340220)">
<path fill-rule="evenodd" clip-rule="evenodd" d="M25.4559 19.9766C25.7406 19.7522 26 19.426 26 19V13C26 12.574 25.7406 12.2478 25.4559 12.0234C25.1655 11.7946 24.7764 11.6104 24.3401 11.465C23.4623 11.1724 22.2814 11 21 11C19.7186 11 18.5377 11.1724 17.6599 11.465C17.2236 11.6104 16.8345 11.7946 16.5441 12.0234C16.2594 12.2478 16 12.574 16 13V19C16 19.426 16.2594 19.7522 16.5441 19.9766C16.8345 20.2054 17.2236 20.3896 17.6599 20.535C18.5377 20.8276 19.7186 21 21 21C22.2814 21 23.4623 20.8276 24.3401 20.535C24.7764 20.3896 25.1655 20.2054 25.4559 19.9766ZM17 12.9999C17.0003 12.4476 18.791 12 21 12C23.2091 12 25 12.4477 25 13C25 13.5523 23.2091 14 21 14C18.7909 14 17 13.5523 17 13C17 13 17 13 17 13C17 12.9999 17 12.9999 17 12.9999ZM24.3401 14.535C24.5767 14.4561 24.7994 14.3659 25 14.2633V16.0001C25 16.0007 24.9999 16.0029 24.9985 16.0076C24.9968 16.0132 24.9926 16.0242 24.9825 16.0407C24.9612 16.0753 24.918 16.1273 24.8369 16.1912C24.6718 16.3213 24.4019 16.4603 24.0239 16.5863C23.273 16.8366 22.2039 17 21 17C19.7961 17 18.727 16.8366 17.9761 16.5863C17.5981 16.4603 17.3282 16.3213 17.1631 16.1912C17.082 16.1273 17.0388 16.0753 17.0175 16.0407C17.0074 16.0242 17.0032 16.0132 17.0015 16.0076C17.0001 16.0029 17 16.0006 17 16V14.2633C17.2006 14.3659 17.4233 14.4561 17.6599 14.535C18.5377 14.8276 19.7186 15 21 15C22.2814 15 23.4623 14.8276 24.3401 14.535ZM24.3401 17.535C24.5767 17.4561 24.7994 17.3659 25 17.2633V19C25 19.0005 25 19.0026 24.9985 19.0076C24.9968 19.0132 24.9926 19.0242 24.9825 19.0407C24.9612 19.0753 24.918 19.1273 24.8369 19.1912C24.6718 19.3213 24.4019 19.4603 24.0239 19.5863C23.273 19.8366 22.2039 20 21 20C19.7961 20 18.727 19.8366 17.9761 19.5863C17.5981 19.4603 17.3282 19.3213 17.1631 19.1912C17.082 19.1273 17.0388 19.0753 17.0175 19.0407C17.0074 19.0242 17.0032 19.0132 17.0015 19.0076C17 19.0026 17 19.0004 17 19V17.2633C17.2006 17.3659 17.4233 17.4561 17.6599 17.535C18.5377 17.8276 19.7186 18 21 18C22.2814 18 23.4623 17.8276 24.3401 17.535Z" fill="white"/>
</g>
</g>
<defs>
<clipPath id="clip0_20267_340220">
<rect width="18" height="18" fill="white" transform="translate(12 7)"/>
</clipPath>
<clipPath id="clip1_20267_340220">
<rect width="12" height="12" fill="white" transform="translate(15 10)"/>
</clipPath>
</defs>
</svg>
