<svg width="200" height="32" viewBox="0 0 200 32" fill="none" xmlns="http://www.w3.org/2000/svg">
<rect x="0.5" y="0.5" width="199" height="31" rx="3.5" fill="white"/>
<rect x="0.5" y="0.5" width="199" height="31" rx="3.5" stroke="#DEE0E3"/>
<path d="M12 10C12 8.34315 13.5985 7 15.5702 7H26.4298C28.4015 7 30 8.34315 30 10V22C30 23.6569 28.4015 25 26.4298 25H15.5702C13.5985 25 12 23.6569 12 22V10Z" fill="#3370FF"/>
<path d="M16.25 20V15.7727C16.25 15.484 16.4899 15.25 16.7857 15.25H19V11.5263C19 11.2356 19.2559 11 19.5715 11H22.4286C22.7442 11 23 11.2356 23 11.5263V14H25.2143C25.5102 14 25.75 14.2239 25.75 14.5V20H26.2499C26.388 20 26.4999 20.1119 26.4999 20.25V20.75C26.4999 20.8881 26.388 21 26.2499 21H15.7499C15.6119 21 15.4999 20.8881 15.4999 20.75V20.25C15.4999 20.1119 15.6119 20 15.7499 20H16.25ZM24.75 20V15H23V20H24.75ZM22 20V12H20V20H22ZM19 20V16.25H17.25V20H19Z" fill="white"/>
</svg>
